<svg xmlns="http://www.w3.org/2000/svg" xmlns:xlink="http://www.w3.org/1999/xlink" width="500" zoomAndPan="magnify" viewBox="0 0 375 374.999991" height="500" preserveAspectRatio="xMidYMid meet" version="1.0"><defs><g><g id="id1"/></g></defs><path fill="rgb(92.158508%, 30.198669%, 39.608765%)" d="M 327.792969 172.355469 C 324.335938 165.167969 320.824219 158.019531 317.246094 150.914062 L 311.839844 140.261719 L 306.359375 129.667969 L 300.789062 119.125 C 298.9375 115.601562 297.070312 112.089844 295.167969 108.605469 L 289.84375 98.871094 L 127.429688 118.800781 L 127.445312 118.816406 C 126.46875 117.949219 125.496094 117.082031 124.511719 116.214844 L 113.574219 106.546875 L 106.136719 99.960938 L 100.589844 107.125 C 95.109375 114.199219 89.625 121.265625 84.242188 128.410156 C 81.527344 131.964844 78.839844 135.542969 76.175781 139.144531 C 73.503906 142.738281 70.816406 146.316406 68.191406 149.953125 C 62.898438 157.183594 57.652344 164.449219 52.503906 171.800781 C 47.351562 179.15625 42.257812 186.550781 37.363281 194.128906 C 44.132812 188.171875 50.699219 182.039062 57.214844 175.867188 C 63.742188 169.695312 70.160156 163.4375 76.53125 157.144531 C 79.734375 154.003906 82.878906 150.820312 86.042969 147.648438 C 89.214844 144.492188 92.359375 141.300781 95.472656 138.097656 C 99.449219 134.0625 103.375 129.988281 107.300781 125.914062 L 111.152344 129.996094 C 114.492188 133.542969 117.839844 137.070312 121.230469 140.558594 L 131.363281 151.0625 L 141.578125 161.464844 C 148.363281 168.429688 155.292969 175.265625 162.167969 182.140625 C 169.027344 189.023438 176.046875 195.757812 182.980469 202.574219 L 186.292969 205.847656 L 191.164062 205.886719 C 195.964844 205.9375 200.769531 205.863281 205.5625 205.855469 L 219.96875 205.78125 L 225.53125 205.753906 L 228.902344 201.617188 L 245.640625 181.089844 L 262.148438 160.355469 C 267.570312 153.382812 273.074219 146.484375 278.414062 139.441406 L 286.480469 128.921875 L 287.8125 127.148438 L 294.648438 136.839844 L 301.597656 146.53125 L 308.640625 156.183594 C 313.351562 162.597656 318.128906 168.976562 322.964844 175.3125 C 327.832031 181.636719 332.726562 187.941406 337.824219 194.128906 C 334.617188 186.78125 331.222656 179.5625 327.792969 172.355469 " fill-opacity="1" fill-rule="nonzero"/><path fill="rgb(92.158508%, 30.198669%, 39.608765%)" d="M 83.351562 191.164062 L 104.898438 190.683594 L 104.898438 171.910156 L 83.351562 174.800781 L 83.351562 191.164062 " fill-opacity="1" fill-rule="nonzero"/><path fill="rgb(92.158508%, 30.198669%, 39.608765%)" d="M 108.152344 212.496094 L 129.703125 214.769531 L 129.703125 193.21875 L 108.152344 193.359375 L 108.152344 212.496094 " fill-opacity="1" fill-rule="nonzero"/><path fill="rgb(92.158508%, 30.198669%, 39.608765%)" d="M 83.351562 209.878906 L 104.898438 212.152344 L 104.898438 193.375 L 83.351562 193.507812 L 83.351562 209.878906 " fill-opacity="1" fill-rule="nonzero"/><path fill="rgb(92.158508%, 30.198669%, 39.608765%)" d="M 108.152344 190.609375 L 129.703125 190.128906 L 129.703125 168.578125 L 108.152344 171.472656 L 108.152344 190.609375 " fill-opacity="1" fill-rule="nonzero"/><path fill="rgb(92.158508%, 30.198669%, 39.608765%)" d="M 287.992188 206.695312 L 305.136719 204.390625 L 305.136719 191.863281 L 287.992188 192.023438 L 287.992188 206.695312 " fill-opacity="1" fill-rule="nonzero"/><path fill="rgb(92.158508%, 30.198669%, 39.608765%)" d="M 268.261719 209.339844 L 285.40625 207.042969 L 285.40625 192.039062 L 268.261719 192.195312 L 268.261719 209.339844 " fill-opacity="1" fill-rule="nonzero"/><path fill="rgb(92.158508%, 30.198669%, 39.608765%)" d="M 287.992188 189.914062 L 305.136719 190.0625 L 305.136719 177.535156 L 287.992188 175.230469 L 287.992188 189.914062 " fill-opacity="1" fill-rule="nonzero"/><path fill="rgb(92.158508%, 30.198669%, 39.608765%)" d="M 268.261719 189.734375 L 285.40625 189.890625 L 285.40625 174.890625 L 268.261719 172.585938 L 268.261719 189.734375 " fill-opacity="1" fill-rule="nonzero"/><g fill="rgb(92.158508%, 30.198669%, 39.608765%)" fill-opacity="1"><g transform="translate(45.544273, 280.166804)"><g><path d="M 9.59375 -29.09375 C 10.15625 -29.414062 11.003906 -29.722656 12.140625 -30.015625 C 13.273438 -30.316406 14.421875 -30.46875 15.578125 -30.46875 C 17.234375 -30.46875 18.691406 -30.226562 19.953125 -29.75 C 21.222656 -29.269531 22.039062 -28.519531 22.40625 -27.5 C 23 -25.789062 23.640625 -23.796875 24.328125 -21.515625 C 25.023438 -19.242188 25.71875 -16.894531 26.40625 -14.46875 C 27.101562 -12.039062 27.78125 -9.648438 28.4375 -7.296875 C 29.101562 -4.941406 29.679688 -2.851562 30.171875 -1.03125 C 29.773438 -0.570312 29.179688 -0.203125 28.390625 0.078125 C 27.597656 0.359375 26.660156 0.5 25.578125 0.5 C 24.785156 0.5 24.113281 0.429688 23.5625 0.296875 C 23.019531 0.160156 22.578125 -0.0351562 22.234375 -0.296875 C 21.890625 -0.554688 21.609375 -0.898438 21.390625 -1.328125 C 21.179688 -1.765625 20.992188 -2.257812 20.828125 -2.8125 L 19.9375 -6.234375 L 10.984375 -6.234375 C 10.722656 -5.242188 10.457031 -4.21875 10.1875 -3.15625 C 9.925781 -2.101562 9.664062 -1.082031 9.40625 -0.09375 C 8.9375 0.0625 8.445312 0.195312 7.9375 0.3125 C 7.425781 0.4375 6.804688 0.5 6.078125 0.5 C 4.398438 0.5 3.15625 0.210938 2.34375 -0.359375 C 1.539062 -0.941406 1.140625 -1.742188 1.140625 -2.765625 C 1.140625 -3.234375 1.203125 -3.695312 1.328125 -4.15625 C 1.460938 -4.613281 1.613281 -5.15625 1.78125 -5.78125 C 2.007812 -6.675781 2.328125 -7.78125 2.734375 -9.09375 C 3.148438 -10.414062 3.601562 -11.84375 4.09375 -13.375 C 4.59375 -14.914062 5.125 -16.492188 5.6875 -18.109375 C 6.25 -19.722656 6.773438 -21.242188 7.265625 -22.671875 C 7.765625 -24.109375 8.21875 -25.390625 8.625 -26.515625 C 9.039062 -27.640625 9.363281 -28.5 9.59375 -29.09375 Z M 15.53125 -22.703125 C 15.070312 -21.316406 14.550781 -19.773438 13.96875 -18.078125 C 13.394531 -16.378906 12.878906 -14.65625 12.421875 -12.90625 L 18.546875 -12.90625 C 18.085938 -14.6875 17.617188 -16.425781 17.140625 -18.125 C 16.660156 -19.820312 16.222656 -21.347656 15.828125 -22.703125 Z M 15.53125 -22.703125 "/></g></g></g><g fill="rgb(92.158508%, 30.198669%, 39.608765%)" fill-opacity="1"><g transform="translate(76.551385, 280.166804)"><g><path d="M 3.21875 -25.375 C 3.21875 -26.789062 3.628906 -27.910156 4.453125 -28.734375 C 5.273438 -29.566406 6.394531 -29.984375 7.8125 -29.984375 L 24.140625 -29.984375 C 24.367188 -29.617188 24.570312 -29.140625 24.75 -28.546875 C 24.9375 -27.953125 25.03125 -27.320312 25.03125 -26.65625 C 25.03125 -25.40625 24.757812 -24.515625 24.21875 -23.984375 C 23.675781 -23.460938 22.957031 -23.203125 22.0625 -23.203125 L 11.625 -23.203125 L 11.625 -18.59375 L 22.75 -18.59375 C 22.988281 -18.238281 23.195312 -17.769531 23.375 -17.1875 C 23.550781 -16.613281 23.640625 -15.992188 23.640625 -15.328125 C 23.640625 -14.078125 23.375 -13.1875 22.84375 -12.65625 C 22.320312 -12.132812 21.617188 -11.875 20.734375 -11.875 L 11.625 -11.875 L 11.625 -6.671875 L 24.34375 -6.671875 C 24.570312 -6.316406 24.773438 -5.84375 24.953125 -5.25 C 25.140625 -4.65625 25.234375 -4.023438 25.234375 -3.359375 C 25.234375 -2.109375 24.957031 -1.210938 24.40625 -0.671875 C 23.863281 -0.128906 23.148438 0.140625 22.265625 0.140625 L 7.8125 0.140625 C 6.394531 0.140625 5.273438 -0.269531 4.453125 -1.09375 C 3.628906 -1.914062 3.21875 -3.035156 3.21875 -4.453125 Z M 3.21875 -25.375 "/></g></g></g><g fill="rgb(92.158508%, 30.198669%, 39.608765%)" fill-opacity="1"><g transform="translate(103.651702, 280.166804)"><g><path d="M 1.828125 -23.046875 C 1.597656 -23.410156 1.382812 -23.90625 1.1875 -24.53125 C 0.988281 -25.15625 0.890625 -25.816406 0.890625 -26.515625 C 0.890625 -27.796875 1.175781 -28.71875 1.75 -29.28125 C 2.332031 -29.84375 3.082031 -30.125 4 -30.125 L 25.578125 -30.125 C 25.804688 -29.757812 26.019531 -29.265625 26.21875 -28.640625 C 26.414062 -28.015625 26.515625 -27.351562 26.515625 -26.65625 C 26.515625 -25.375 26.222656 -24.453125 25.640625 -23.890625 C 25.066406 -23.328125 24.320312 -23.046875 23.40625 -23.046875 L 17.90625 -23.046875 L 17.90625 -0.203125 C 17.539062 -0.0976562 16.96875 0 16.1875 0.09375 C 15.414062 0.195312 14.65625 0.25 13.90625 0.25 C 13.144531 0.25 12.472656 0.191406 11.890625 0.078125 C 11.316406 -0.0351562 10.832031 -0.238281 10.4375 -0.53125 C 10.039062 -0.832031 9.742188 -1.25 9.546875 -1.78125 C 9.347656 -2.3125 9.25 -3.003906 9.25 -3.859375 L 9.25 -23.046875 Z M 1.828125 -23.046875 "/></g></g></g><g fill="rgb(92.158508%, 30.198669%, 39.608765%)" fill-opacity="1"><g transform="translate(131.147642, 280.166804)"><g><path d="M 30.03125 -0.203125 C 29.664062 -0.0976562 29.09375 0 28.3125 0.09375 C 27.539062 0.195312 26.773438 0.25 26.015625 0.25 C 25.253906 0.25 24.585938 0.191406 24.015625 0.078125 C 23.441406 -0.0351562 22.957031 -0.238281 22.5625 -0.53125 C 22.164062 -0.832031 21.867188 -1.25 21.671875 -1.78125 C 21.472656 -2.3125 21.375 -3.003906 21.375 -3.859375 L 21.375 -11.578125 L 11.875 -11.578125 L 11.875 -0.203125 C 11.507812 -0.0976562 10.9375 0 10.15625 0.09375 C 9.382812 0.195312 8.617188 0.25 7.859375 0.25 C 7.109375 0.25 6.441406 0.191406 5.859375 0.078125 C 5.285156 -0.0351562 4.800781 -0.238281 4.40625 -0.53125 C 4.007812 -0.832031 3.710938 -1.25 3.515625 -1.78125 C 3.316406 -2.3125 3.21875 -3.003906 3.21875 -3.859375 L 3.21875 -29.984375 C 3.582031 -30.046875 4.160156 -30.132812 4.953125 -30.25 C 5.742188 -30.363281 6.5 -30.421875 7.21875 -30.421875 C 7.976562 -30.421875 8.644531 -30.363281 9.21875 -30.25 C 9.800781 -30.132812 10.289062 -29.925781 10.6875 -29.625 C 11.082031 -29.332031 11.378906 -28.921875 11.578125 -28.390625 C 11.773438 -27.867188 11.875 -27.175781 11.875 -26.3125 L 11.875 -18.40625 L 21.375 -18.40625 L 21.375 -29.984375 C 21.738281 -30.046875 22.316406 -30.132812 23.109375 -30.25 C 23.898438 -30.363281 24.65625 -30.421875 25.375 -30.421875 C 26.132812 -30.421875 26.800781 -30.363281 27.375 -30.25 C 27.957031 -30.132812 28.445312 -29.925781 28.84375 -29.625 C 29.238281 -29.332031 29.535156 -28.921875 29.734375 -28.390625 C 29.929688 -27.867188 30.03125 -27.175781 30.03125 -26.3125 Z M 30.03125 -0.203125 "/></g></g></g><g fill="rgb(92.158508%, 30.198669%, 39.608765%)" fill-opacity="1"><g transform="translate(164.380149, 280.166804)"><g/></g></g><g fill="rgb(92.158508%, 30.198669%, 39.608765%)" fill-opacity="1"><g transform="translate(174.270774, 280.166804)"><g><path d="M 30.03125 -0.203125 C 29.664062 -0.0976562 29.09375 0 28.3125 0.09375 C 27.539062 0.195312 26.773438 0.25 26.015625 0.25 C 25.253906 0.25 24.585938 0.191406 24.015625 0.078125 C 23.441406 -0.0351562 22.957031 -0.238281 22.5625 -0.53125 C 22.164062 -0.832031 21.867188 -1.25 21.671875 -1.78125 C 21.472656 -2.3125 21.375 -3.003906 21.375 -3.859375 L 21.375 -11.578125 L 11.875 -11.578125 L 11.875 -0.203125 C 11.507812 -0.0976562 10.9375 0 10.15625 0.09375 C 9.382812 0.195312 8.617188 0.25 7.859375 0.25 C 7.109375 0.25 6.441406 0.191406 5.859375 0.078125 C 5.285156 -0.0351562 4.800781 -0.238281 4.40625 -0.53125 C 4.007812 -0.832031 3.710938 -1.25 3.515625 -1.78125 C 3.316406 -2.3125 3.21875 -3.003906 3.21875 -3.859375 L 3.21875 -29.984375 C 3.582031 -30.046875 4.160156 -30.132812 4.953125 -30.25 C 5.742188 -30.363281 6.5 -30.421875 7.21875 -30.421875 C 7.976562 -30.421875 8.644531 -30.363281 9.21875 -30.25 C 9.800781 -30.132812 10.289062 -29.925781 10.6875 -29.625 C 11.082031 -29.332031 11.378906 -28.921875 11.578125 -28.390625 C 11.773438 -27.867188 11.875 -27.175781 11.875 -26.3125 L 11.875 -18.40625 L 21.375 -18.40625 L 21.375 -29.984375 C 21.738281 -30.046875 22.316406 -30.132812 23.109375 -30.25 C 23.898438 -30.363281 24.65625 -30.421875 25.375 -30.421875 C 26.132812 -30.421875 26.800781 -30.363281 27.375 -30.25 C 27.957031 -30.132812 28.445312 -29.925781 28.84375 -29.625 C 29.238281 -29.332031 29.535156 -28.921875 29.734375 -28.390625 C 29.929688 -27.867188 30.03125 -27.175781 30.03125 -26.3125 Z M 30.03125 -0.203125 "/></g></g></g><g fill="rgb(92.158508%, 30.198669%, 39.608765%)" fill-opacity="1"><g transform="translate(207.503281, 280.166804)"><g><path d="M 1.734375 -15.03125 C 1.734375 -17.601562 2.132812 -19.878906 2.9375 -21.859375 C 3.75 -23.835938 4.851562 -25.492188 6.25 -26.828125 C 7.65625 -28.171875 9.304688 -29.1875 11.203125 -29.875 C 13.097656 -30.570312 15.148438 -30.921875 17.359375 -30.921875 C 19.566406 -30.921875 21.617188 -30.570312 23.515625 -29.875 C 25.410156 -29.1875 27.066406 -28.171875 28.484375 -26.828125 C 29.910156 -25.492188 31.023438 -23.835938 31.828125 -21.859375 C 32.640625 -19.878906 33.046875 -17.601562 33.046875 -15.03125 C 33.046875 -12.46875 32.648438 -10.1875 31.859375 -8.1875 C 31.066406 -6.1875 29.96875 -4.519531 28.5625 -3.1875 C 27.164062 -1.851562 25.507812 -0.835938 23.59375 -0.140625 C 21.6875 0.546875 19.609375 0.890625 17.359375 0.890625 C 15.117188 0.890625 13.039062 0.535156 11.125 -0.171875 C 9.21875 -0.878906 7.570312 -1.910156 6.1875 -3.265625 C 4.800781 -4.617188 3.710938 -6.285156 2.921875 -8.265625 C 2.128906 -10.242188 1.734375 -12.5 1.734375 -15.03125 Z M 10.640625 -15.03125 C 10.640625 -12.03125 11.25 -9.785156 12.46875 -8.296875 C 13.6875 -6.816406 15.316406 -6.078125 17.359375 -6.078125 C 19.441406 -6.078125 21.09375 -6.816406 22.3125 -8.296875 C 23.53125 -9.785156 24.140625 -12.03125 24.140625 -15.03125 C 24.140625 -18 23.535156 -20.222656 22.328125 -21.703125 C 21.128906 -23.191406 19.488281 -23.9375 17.40625 -23.9375 C 15.363281 -23.9375 13.722656 -23.203125 12.484375 -21.734375 C 11.253906 -20.273438 10.640625 -18.039062 10.640625 -15.03125 Z M 10.640625 -15.03125 "/></g></g></g><g fill="rgb(92.158508%, 30.198669%, 39.608765%)" fill-opacity="1"><g transform="translate(242.268839, 280.166804)"><g><path d="M 29.78125 -11.078125 C 29.78125 -9.296875 29.472656 -7.671875 28.859375 -6.203125 C 28.253906 -4.734375 27.375 -3.476562 26.21875 -2.4375 C 25.0625 -1.40625 23.660156 -0.609375 22.015625 -0.046875 C 20.367188 0.515625 18.503906 0.796875 16.421875 0.796875 C 14.347656 0.796875 12.484375 0.515625 10.828125 -0.046875 C 9.179688 -0.609375 7.78125 -1.40625 6.625 -2.4375 C 5.46875 -3.476562 4.582031 -4.734375 3.96875 -6.203125 C 3.363281 -7.671875 3.0625 -9.296875 3.0625 -11.078125 L 3.0625 -29.984375 C 3.425781 -30.046875 4.003906 -30.132812 4.796875 -30.25 C 5.585938 -30.363281 6.347656 -30.421875 7.078125 -30.421875 C 7.835938 -30.421875 8.503906 -30.363281 9.078125 -30.25 C 9.648438 -30.132812 10.132812 -29.925781 10.53125 -29.625 C 10.925781 -29.332031 11.222656 -28.921875 11.421875 -28.390625 C 11.617188 -27.867188 11.71875 -27.175781 11.71875 -26.3125 L 11.71875 -11.234375 C 11.71875 -9.648438 12.15625 -8.410156 13.03125 -7.515625 C 13.90625 -6.628906 15.035156 -6.1875 16.421875 -6.1875 C 17.835938 -6.1875 18.972656 -6.628906 19.828125 -7.515625 C 20.691406 -8.410156 21.125 -9.648438 21.125 -11.234375 L 21.125 -29.984375 C 21.488281 -30.046875 22.066406 -30.132812 22.859375 -30.25 C 23.648438 -30.363281 24.40625 -30.421875 25.125 -30.421875 C 25.882812 -30.421875 26.550781 -30.363281 27.125 -30.25 C 27.707031 -30.132812 28.195312 -29.925781 28.59375 -29.625 C 28.988281 -29.332031 29.285156 -28.921875 29.484375 -28.390625 C 29.679688 -27.867188 29.78125 -27.175781 29.78125 -26.3125 Z M 29.78125 -11.078125 "/></g></g></g><g fill="rgb(92.158508%, 30.198669%, 39.608765%)" fill-opacity="1"><g transform="translate(275.105736, 280.166804)"><g><path d="M 11.71875 -11.921875 C 10.269531 -12.410156 8.953125 -12.910156 7.765625 -13.421875 C 6.578125 -13.941406 5.550781 -14.5625 4.6875 -15.28125 C 3.832031 -16.007812 3.164062 -16.875 2.6875 -17.875 C 2.21875 -18.882812 1.984375 -20.113281 1.984375 -21.5625 C 1.984375 -24.363281 3.0625 -26.601562 5.21875 -28.28125 C 7.375 -29.96875 10.398438 -30.8125 14.296875 -30.8125 C 15.710938 -30.8125 17.03125 -30.710938 18.25 -30.515625 C 19.46875 -30.316406 20.515625 -30.007812 21.390625 -29.59375 C 22.265625 -29.1875 22.945312 -28.660156 23.4375 -28.015625 C 23.9375 -27.378906 24.1875 -26.628906 24.1875 -25.765625 C 24.1875 -24.910156 23.988281 -24.175781 23.59375 -23.5625 C 23.195312 -22.957031 22.71875 -22.441406 22.15625 -22.015625 C 21.4375 -22.472656 20.460938 -22.875 19.234375 -23.21875 C 18.015625 -23.570312 16.679688 -23.75 15.234375 -23.75 C 13.753906 -23.75 12.664062 -23.539062 11.96875 -23.125 C 11.28125 -22.71875 10.9375 -22.195312 10.9375 -21.5625 C 10.9375 -21.070312 11.148438 -20.671875 11.578125 -20.359375 C 12.003906 -20.046875 12.644531 -19.753906 13.5 -19.484375 L 16.125 -18.65625 C 19.226562 -17.664062 21.609375 -16.398438 23.265625 -14.859375 C 24.929688 -13.328125 25.765625 -11.242188 25.765625 -8.609375 C 25.765625 -5.804688 24.660156 -3.535156 22.453125 -1.796875 C 20.242188 -0.0664062 17 0.796875 12.71875 0.796875 C 11.195312 0.796875 9.785156 0.671875 8.484375 0.421875 C 7.179688 0.171875 6.039062 -0.191406 5.0625 -0.671875 C 4.09375 -1.148438 3.335938 -1.742188 2.796875 -2.453125 C 2.253906 -3.160156 1.984375 -3.972656 1.984375 -4.890625 C 1.984375 -5.847656 2.257812 -6.664062 2.8125 -7.34375 C 3.375 -8.019531 3.988281 -8.539062 4.65625 -8.90625 C 5.570312 -8.175781 6.695312 -7.546875 8.03125 -7.015625 C 9.375 -6.492188 10.835938 -6.234375 12.421875 -6.234375 C 14.035156 -6.234375 15.171875 -6.476562 15.828125 -6.96875 C 16.484375 -7.46875 16.8125 -8.046875 16.8125 -8.703125 C 16.8125 -9.367188 16.546875 -9.875 16.015625 -10.21875 C 15.492188 -10.5625 14.753906 -10.898438 13.796875 -11.234375 Z M 11.71875 -11.921875 "/></g></g></g><g fill="rgb(92.158508%, 30.198669%, 39.608765%)" fill-opacity="1"><g transform="translate(302.354414, 280.166804)"><g><path d="M 3.21875 -25.375 C 3.21875 -26.789062 3.628906 -27.910156 4.453125 -28.734375 C 5.273438 -29.566406 6.394531 -29.984375 7.8125 -29.984375 L 24.140625 -29.984375 C 24.367188 -29.617188 24.570312 -29.140625 24.75 -28.546875 C 24.9375 -27.953125 25.03125 -27.320312 25.03125 -26.65625 C 25.03125 -25.40625 24.757812 -24.515625 24.21875 -23.984375 C 23.675781 -23.460938 22.957031 -23.203125 22.0625 -23.203125 L 11.625 -23.203125 L 11.625 -18.59375 L 22.75 -18.59375 C 22.988281 -18.238281 23.195312 -17.769531 23.375 -17.1875 C 23.550781 -16.613281 23.640625 -15.992188 23.640625 -15.328125 C 23.640625 -14.078125 23.375 -13.1875 22.84375 -12.65625 C 22.320312 -12.132812 21.617188 -11.875 20.734375 -11.875 L 11.625 -11.875 L 11.625 -6.671875 L 24.34375 -6.671875 C 24.570312 -6.316406 24.773438 -5.84375 24.953125 -5.25 C 25.140625 -4.65625 25.234375 -4.023438 25.234375 -3.359375 C 25.234375 -2.109375 24.957031 -1.210938 24.40625 -0.671875 C 23.863281 -0.128906 23.148438 0.140625 22.265625 0.140625 L 7.8125 0.140625 C 6.394531 0.140625 5.273438 -0.269531 4.453125 -1.09375 C 3.628906 -1.914062 3.21875 -3.035156 3.21875 -4.453125 Z M 3.21875 -25.375 "/></g></g></g></svg>